<?xml version="1.0" encoding="UTF-8" standalone="no"?>
<!-- Generator: Adobe Illustrator 19.0.0, SVG Export Plug-In . SVG Version: 6.00 Build 0)  -->

<svg
   xmlns:dc="http://purl.org/dc/elements/1.1/"
   xmlns:cc="http://creativecommons.org/ns#"
   xmlns:rdf="http://www.w3.org/1999/02/22-rdf-syntax-ns#"
   xmlns:svg="http://www.w3.org/2000/svg"
   xmlns="http://www.w3.org/2000/svg"
   xmlns:sodipodi="http://sodipodi.sourceforge.net/DTD/sodipodi-0.dtd"
   xmlns:inkscape="http://www.inkscape.org/namespaces/inkscape"
   version="1.1"
   id="Layer_1"
   x="0px"
   y="0px"
   viewBox="0 0 512.001 512.001"
   style="enable-background:new 0 0 512.001 512.001;"
   xml:space="preserve"
   sodipodi:docname="freehusky.svg"
   inkscape:version="0.92.1 r"><metadata
     id="metadata5599"><rdf:RDF><cc:Work
         rdf:about=""><dc:format>image/svg+xml</dc:format><dc:type
           rdf:resource="http://purl.org/dc/dcmitype/StillImage" /></cc:Work></rdf:RDF></metadata><defs
     id="defs5597" /><sodipodi:namedview
     pagecolor="#ffffff"
     bordercolor="#666666"
     borderopacity="1"
     objecttolerance="10"
     gridtolerance="10"
     guidetolerance="10"
     inkscape:pageopacity="0"
     inkscape:pageshadow="2"
     inkscape:window-width="1920"
     inkscape:window-height="992"
     id="namedview5595"
     showgrid="false"
     inkscape:zoom="0.92187324"
     inkscape:cx="88.196959"
     inkscape:cy="289.81977"
     inkscape:window-x="0"
     inkscape:window-y="27"
     inkscape:window-maximized="1"
     inkscape:current-layer="Layer_1" /><g
     id="g5544"
     style="fill:#ffcd00;fill-opacity:1"><g
       id="g5542"
       style="fill:#ffcd00;fill-opacity:1"><path
         d="M503.102,397.431L463.649,17.69c-0.809-7.781-6.138-14.348-13.585-16.741c-7.446-2.397-15.605-0.162-20.796,5.69    l-69.009,77.806c-67.251-24.252-141.268-24.252-208.519,0L82.733,6.639c-5.191-5.852-13.347-8.084-20.796-5.69    C54.489,3.342,49.16,9.91,48.352,17.69L8.898,397.431c-0.878,8.458,3.761,16.527,11.513,20.023l186.088,83.909    c15.729,7.092,32.615,10.638,49.502,10.638c16.886,0,33.772-3.546,49.502-10.638l186.087-83.909    C499.341,413.958,503.981,405.888,503.102,397.431z M289.285,465.394c-21.152,9.539-45.416,9.539-66.57,0L66.441,394.928    l71.537-187.139c1.633-4.274,4.871-7.571,9.115-9.283c4.243-1.711,8.86-1.583,13.004,0.362l45.036,21.142    c4.302,2.02,7.641,5.562,9.4,9.976l23.145,58.175c2.991,7.5,10.249,12.555,18.323,12.555h0.183    c8.075,0,15.333-5.055,18.323-12.555l23.145-58.107c1.76-4.414,5.097-7.991,9.399-10.011l45.036-21.159    c4.14-1.945,8.759-2.082,13.004-0.37c4.244,1.712,7.482,5.004,9.115,9.278l71.509,187.067L289.285,465.394z M411.056,193.703    c-5.514-14.424-16.89-26.009-31.21-31.785c-14.319-5.776-30.549-5.325-44.527,1.237l-45.036,21.142    c-13.398,6.292-23.798,17.327-29.281,31.076l-4.912,12.319l-4.912-12.319c-5.483-13.749-15.881-24.786-29.281-31.076    l-45.036-21.142c-13.978-6.561-30.207-7.013-44.527-1.237c-14.32,5.776-25.696,17.361-31.21,31.785l-43.112,112.78l24.95-240.127    l63.874,72.015c7.23,8.152,19.699,8.898,27.847,1.669c6.712-5.954,8.39-15.454,4.741-23.175    c49.893-14.867,103.258-14.867,153.151,0c-3.648,7.722-1.97,17.223,4.741,23.175c8.15,7.228,20.618,6.482,27.847-1.669    l63.874-72.015l24.879,239.472L411.056,193.703z"
         id="path5540"
         style="fill:#ffcd00;fill-opacity:1" /></g></g><g
     id="g5550"
     style="fill:#ffcd00;fill-opacity:0.92146599"><g
       id="g5548"
       style="fill:#ffcd00;fill-opacity:0.92146599"><path
         d="M285.208,341.486h-58.415c-13.414,0-20.132,16.142-10.647,25.628l29.207,29.169c5.88,5.88,15.413,5.861,21.293-0.018    l29.207-29.14C305.339,357.637,298.621,341.486,285.208,341.486z"
         id="path5546"
         style="fill:#ffcd00;fill-opacity:0.92146599" /></g></g><g
     id="g5556"
     style="fill:#ffcd00;fill-opacity:1"><g
       id="g5554"
       style="fill:#ffcd00;fill-opacity:1"><circle
         cx="178.079"
         cy="272.819"
         r="21.108"
         id="circle5552"
         style="fill:#ffcd00;fill-opacity:1" /></g></g><g
     id="g5562"
     style="fill:#ffcd00;fill-opacity:1"><g
       id="g5560"
       style="fill:#ffcd00;fill-opacity:1"><circle
         cx="333.933"
         cy="272.819"
         r="21.108"
         id="circle5558"
         style="fill:#ffcd00;fill-opacity:1" /></g></g><g
     id="g5564" /><g
     id="g5566" /><g
     id="g5568" /><g
     id="g5570" /><g
     id="g5572" /><g
     id="g5574" /><g
     id="g5576" /><g
     id="g5578" /><g
     id="g5580" /><g
     id="g5582" /><g
     id="g5584" /><g
     id="g5586" /><g
     id="g5588" /><g
     id="g5590" /><g
     id="g5592" /></svg>